<mxfile host="app.diagrams.net" modified="2021-09-13T13:57:01.780Z" agent="5.0 (Windows NT 10.0; Win64; x64) AppleWebKit/537.36 (KHTML, like Gecko) Chrome/93.0.4577.63 Safari/537.36" etag="NZUWnTzN2IWiQg8Do74k" version="15.2.4" type="github">
  <diagram id="BOJJNkMMljvyY1yINhiO" name="Page-1">
    <mxGraphModel dx="1422" dy="794" grid="1" gridSize="10" guides="1" tooltips="1" connect="1" arrows="1" fold="1" page="1" pageScale="1" pageWidth="850" pageHeight="1100" math="0" shadow="0">
      <root>
        <mxCell id="0" />
        <mxCell id="1" parent="0" />
        <mxCell id="W5pFXup2JFohNcSb8Qt0-1" value="Home page" style="whiteSpace=wrap;html=1;align=center;" vertex="1" parent="1">
          <mxGeometry x="80" y="150" width="100" height="40" as="geometry" />
        </mxCell>
        <mxCell id="W5pFXup2JFohNcSb8Qt0-9" style="edgeStyle=orthogonalEdgeStyle;rounded=0;orthogonalLoop=1;jettySize=auto;html=1;" edge="1" parent="1" source="W5pFXup2JFohNcSb8Qt0-2" target="W5pFXup2JFohNcSb8Qt0-3">
          <mxGeometry relative="1" as="geometry" />
        </mxCell>
        <mxCell id="W5pFXup2JFohNcSb8Qt0-10" style="edgeStyle=orthogonalEdgeStyle;rounded=0;orthogonalLoop=1;jettySize=auto;html=1;" edge="1" parent="1" source="W5pFXup2JFohNcSb8Qt0-2" target="W5pFXup2JFohNcSb8Qt0-4">
          <mxGeometry relative="1" as="geometry" />
        </mxCell>
        <mxCell id="W5pFXup2JFohNcSb8Qt0-2" value="Login" style="whiteSpace=wrap;html=1;align=center;" vertex="1" parent="1">
          <mxGeometry x="390" y="40" width="100" height="40" as="geometry" />
        </mxCell>
        <mxCell id="W5pFXup2JFohNcSb8Qt0-3" value="enterprise" style="whiteSpace=wrap;html=1;align=center;" vertex="1" parent="1">
          <mxGeometry x="300" y="130" width="100" height="40" as="geometry" />
        </mxCell>
        <mxCell id="W5pFXup2JFohNcSb8Qt0-4" value="Client" style="whiteSpace=wrap;html=1;align=center;" vertex="1" parent="1">
          <mxGeometry x="460" y="130" width="100" height="40" as="geometry" />
        </mxCell>
        <mxCell id="W5pFXup2JFohNcSb8Qt0-5" value="Run sales" style="whiteSpace=wrap;html=1;align=center;" vertex="1" parent="1">
          <mxGeometry x="80" y="230" width="100" height="40" as="geometry" />
        </mxCell>
        <mxCell id="W5pFXup2JFohNcSb8Qt0-7" value="Run new feeds" style="whiteSpace=wrap;html=1;align=center;" vertex="1" parent="1">
          <mxGeometry x="80" y="300" width="100" height="40" as="geometry" />
        </mxCell>
        <mxCell id="W5pFXup2JFohNcSb8Qt0-11" value="API load data from social media" style="whiteSpace=wrap;html=1;align=center;" vertex="1" parent="1">
          <mxGeometry x="610" y="310" width="100" height="40" as="geometry" />
        </mxCell>
        <mxCell id="W5pFXup2JFohNcSb8Qt0-12" value="enterprise" style="whiteSpace=wrap;html=1;align=center;" vertex="1" parent="1">
          <mxGeometry x="610" y="130" width="100" height="40" as="geometry" />
        </mxCell>
        <mxCell id="W5pFXup2JFohNcSb8Qt0-15" style="edgeStyle=orthogonalEdgeStyle;rounded=0;orthogonalLoop=1;jettySize=auto;html=1;" edge="1" parent="1" source="W5pFXup2JFohNcSb8Qt0-13" target="W5pFXup2JFohNcSb8Qt0-12">
          <mxGeometry relative="1" as="geometry" />
        </mxCell>
        <mxCell id="W5pFXup2JFohNcSb8Qt0-16" style="edgeStyle=orthogonalEdgeStyle;rounded=0;orthogonalLoop=1;jettySize=auto;html=1;" edge="1" parent="1" source="W5pFXup2JFohNcSb8Qt0-13" target="W5pFXup2JFohNcSb8Qt0-14">
          <mxGeometry relative="1" as="geometry" />
        </mxCell>
        <mxCell id="W5pFXup2JFohNcSb8Qt0-13" value="Register" style="whiteSpace=wrap;html=1;align=center;" vertex="1" parent="1">
          <mxGeometry x="690" y="40" width="100" height="40" as="geometry" />
        </mxCell>
        <mxCell id="W5pFXup2JFohNcSb8Qt0-19" value="" style="edgeStyle=orthogonalEdgeStyle;rounded=0;orthogonalLoop=1;jettySize=auto;html=1;" edge="1" parent="1" source="W5pFXup2JFohNcSb8Qt0-14" target="W5pFXup2JFohNcSb8Qt0-17">
          <mxGeometry relative="1" as="geometry" />
        </mxCell>
        <mxCell id="W5pFXup2JFohNcSb8Qt0-20" style="edgeStyle=orthogonalEdgeStyle;rounded=0;orthogonalLoop=1;jettySize=auto;html=1;" edge="1" parent="1" source="W5pFXup2JFohNcSb8Qt0-14" target="W5pFXup2JFohNcSb8Qt0-18">
          <mxGeometry relative="1" as="geometry" />
        </mxCell>
        <mxCell id="W5pFXup2JFohNcSb8Qt0-14" value="Client" style="whiteSpace=wrap;html=1;align=center;" vertex="1" parent="1">
          <mxGeometry x="770" y="130" width="100" height="40" as="geometry" />
        </mxCell>
        <mxCell id="W5pFXup2JFohNcSb8Qt0-17" value="login via social media" style="whiteSpace=wrap;html=1;align=center;" vertex="1" parent="1">
          <mxGeometry x="700" y="220" width="100" height="40" as="geometry" />
        </mxCell>
        <mxCell id="W5pFXup2JFohNcSb8Qt0-18" value="available acount" style="whiteSpace=wrap;html=1;align=center;" vertex="1" parent="1">
          <mxGeometry x="870" y="220" width="100" height="40" as="geometry" />
        </mxCell>
        <mxCell id="W5pFXup2JFohNcSb8Qt0-21" value="New feed pages" style="whiteSpace=wrap;html=1;align=center;" vertex="1" parent="1">
          <mxGeometry x="80" y="380" width="100" height="40" as="geometry" />
        </mxCell>
        <mxCell id="W5pFXup2JFohNcSb8Qt0-22" value="Enterprise information" style="whiteSpace=wrap;html=1;align=center;" vertex="1" parent="1">
          <mxGeometry x="80" y="470" width="100" height="40" as="geometry" />
        </mxCell>
      </root>
    </mxGraphModel>
  </diagram>
</mxfile>
